<svg width="32" height="32" viewBox="0 0 32 32" fill="none" xmlns="http://www.w3.org/2000/svg">
<path d="M16 8.00001C17.4667 8.00001 18.6667 9.20001 18.6667 10.6667C18.6667 12.1333 17.4667 13.3333 16 13.3333C14.5333 13.3333 13.3333 12.1333 13.3333 10.6667C13.3333 9.20001 14.5333 8.00001 16 8.00001ZM16 21.3333C19.6 21.3333 23.7333 23.0533 24 24H8C8.30667 23.04 12.4133 21.3333 16 21.3333ZM16 5.33334C13.0533 5.33334 10.6667 7.72001 10.6667 10.6667C10.6667 13.6133 13.0533 16 16 16C18.9467 16 21.3333 13.6133 21.3333 10.6667C21.3333 7.72001 18.9467 5.33334 16 5.33334ZM16 18.6667C12.44 18.6667 5.33333 20.4533 5.33333 24V26.6667H26.6667V24C26.6667 20.4533 19.56 18.6667 16 18.6667Z" fill="#023E73"/>
</svg>
