<svg width="32" height="32" viewBox="0 0 32 32" fill="none" xmlns="http://www.w3.org/2000/svg">
<path d="M21.3882 17.1852C22.2771 17.1852 23.0593 16.6992 23.4623 15.9644L27.7052 8.27258C28.1437 7.49035 27.5749 6.5185 26.6741 6.5185H9.13338L8.0193 4.14813H4.14375V6.5185H6.51412L10.7808 15.5141L9.18078 18.4059C8.3156 19.9941 9.45338 21.9259 11.2549 21.9259H25.4771V19.5555H11.2549L12.5586 17.1852H21.3882ZM10.2593 8.88887H24.6593L21.3882 14.8148H13.0682L10.2593 8.88887ZM11.2549 23.1111C9.95115 23.1111 8.89634 24.1778 8.89634 25.4815C8.89634 26.7852 9.95115 27.8518 11.2549 27.8518C12.5586 27.8518 13.6252 26.7852 13.6252 25.4815C13.6252 24.1778 12.5586 23.1111 11.2549 23.1111ZM23.1067 23.1111C21.803 23.1111 20.7482 24.1778 20.7482 25.4815C20.7482 26.7852 21.803 27.8518 23.1067 27.8518C24.4104 27.8518 25.4771 26.7852 25.4771 25.4815C25.4771 24.1778 24.4104 23.1111 23.1067 23.1111Z" fill="#023E73"/>
</svg>
