<svg width="72" height="64" viewBox="0 0 72 64" fill="none" xmlns="http://www.w3.org/2000/svg">
<path d="M52.1234 34.6667C54.1234 34.6667 55.8834 33.5733 56.7901 31.92L66.3368 14.6133C67.3234 12.8533 66.0434 10.6667 64.0168 10.6667H24.5501L22.0434 5.33333H13.3234V10.6667H18.6568L28.2568 30.9067L24.6568 37.4133C22.7101 40.9867 25.2701 45.3333 29.3234 45.3333H61.3234V40H29.3234L32.2568 34.6667H52.1234ZM27.0834 16H59.4834L52.1234 29.3333H33.4034L27.0834 16ZM29.3234 48C26.3901 48 24.0168 50.4 24.0168 53.3333C24.0168 56.2667 26.3901 58.6667 29.3234 58.6667C32.2568 58.6667 34.6568 56.2667 34.6568 53.3333C34.6568 50.4 32.2568 48 29.3234 48ZM55.9901 48C53.0568 48 50.6834 50.4 50.6834 53.3333C50.6834 56.2667 53.0568 58.6667 55.9901 58.6667C58.9234 58.6667 61.3234 56.2667 61.3234 53.3333C61.3234 50.4 58.9234 48 55.9901 48Z" fill="#023E73"/>
<line x1="16" y1="21" y2="21" stroke="#023E73" stroke-width="4"/>
<line x1="20" y1="29" x2="4" y2="29" stroke="#023E73" stroke-width="4"/>
<line x1="16" y1="37" y2="37" stroke="#023E73" stroke-width="4"/>
</svg>
