<svg width="200" height="200" viewBox="0 0 200 200" fill="none" xmlns="http://www.w3.org/2000/svg">
<path d="M35.4167 50H52.0833V75H135.417V50H152.083V91.6667H168.75V50C168.75 40.8333 161.25 33.3333 152.083 33.3333H117.25C113.75 23.6667 104.583 16.6667 93.75 16.6667C82.9167 16.6667 73.75 23.6667 70.25 33.3333H35.4167C26.25 33.3333 18.75 40.8333 18.75 50V166.667C18.75 175.833 26.25 183.333 35.4167 183.333H85.4167V166.667H35.4167V50ZM93.75 33.3333C98.3333 33.3333 102.083 37.0833 102.083 41.6667C102.083 46.25 98.3333 50 93.75 50C89.1667 50 85.4167 46.25 85.4167 41.6667C85.4167 37.0833 89.1667 33.3333 93.75 33.3333Z" fill="black"/>
<path d="M168.75 104.167L123 150L97.9167 125L85.4167 137.5L123 175L181.25 116.667L168.75 104.167Z" fill="black"/>
</svg>
