<svg width="200" height="200" viewBox="0 0 200 200" fill="none" xmlns="http://www.w3.org/2000/svg">
<path d="M92.2399 102.917C98.6565 91.3333 110.99 84.5 118.157 74.25C125.74 63.5 121.49 43.4167 99.9899 43.4167C85.9065 43.4167 78.9899 54.0833 76.0732 62.9167L54.4899 53.8333C60.4065 36.0833 76.4899 20.8333 99.9065 20.8333C119.49 20.8333 132.907 29.75 139.74 40.9167C145.573 50.5 148.99 68.4167 139.99 81.75C129.99 96.5 120.407 101 115.24 110.5C113.157 114.333 112.323 116.833 112.323 129.167H88.2399C88.1565 122.667 87.1565 112.083 92.2399 102.917ZM116.657 162.5C116.657 171.667 109.157 179.167 99.9899 179.167C90.8232 179.167 83.3232 171.667 83.3232 162.5C83.3232 153.333 90.8232 145.833 99.9899 145.833C109.157 145.833 116.657 153.333 116.657 162.5Z" fill="black"/>
</svg>
